<?xml version="1.0" standalone="no"?>
<!DOCTYPE svg PUBLIC "-//W3C//DTD SVG 20010904//EN"
 "http://www.w3.org/TR/2001/REC-SVG-20010904/DTD/svg10.dtd">
<svg version="1.0" xmlns="http://www.w3.org/2000/svg"
 width="489.000000pt" height="510.000000pt" viewBox="0 0 489.000000 510.000000"
 preserveAspectRatio="xMidYMid meet">

<g transform="translate(0.000000,510.000000) scale(0.100000,-0.100000)"
fill="#000000" stroke="none">
<path d="M2185 4579 c-38 -5 -124 -23 -190 -40 -463 -117 -838 -378 -1108
-770 -292 -423 -395 -965 -280 -1469 60 -264 162 -486 332 -720 68 -94 285
-312 370 -371 85 -59 274 -179 284 -179 4 0 31 -12 60 -26 217 -106 526 -174
792 -174 268 0 574 67 792 174 29 14 56 26 59 26 9 0 144 81 214 129 228 155
437 381 571 615 236 410 308 913 199 1370 -95 398 -304 738 -615 1000 -125
106 -228 175 -365 245 -187 96 -412 167 -605 190 -105 13 -408 12 -510 0z
m-365 -672 c53 -27 87 -79 96 -149 l7 -48 522 0 522 0 7 48 c10 71 43 120 101
151 103 54 214 17 268 -88 15 -30 27 -67 27 -83 0 -28 1 -28 63 -28 84 0 131
-15 175 -55 62 -55 73 -103 70 -300 l-3 -170 -1230 0 -1230 0 -3 170 c-3 197
8 245 70 300 44 40 91 55 176 55 55 0 62 2 62 20 0 43 42 130 74 155 76 58
143 65 226 22z m1854 -1517 l0 -745 -27 -51 c-21 -41 -36 -57 -74 -75 l-48
-24 -1060 -3 c-774 -2 -1071 0 -1100 9 -58 16 -104 55 -128 108 -20 45 -21 63
-23 781 -1 404 0 738 2 742 3 5 557 7 1232 6 l1227 -3 -1 -745z"/>
<path d="M1672 3835 c-54 -24 -62 -57 -62 -273 0 -180 1 -191 23 -223 37 -55
114 -64 168 -20 24 19 24 22 27 232 4 238 -1 263 -54 285 -41 17 -60 17 -102
-1z"/>
<path d="M3115 3836 c-50 -22 -55 -47 -55 -267 0 -227 5 -249 65 -269 48 -16
96 -6 126 26 24 25 24 30 27 229 3 226 -2 251 -58 280 -35 18 -65 19 -105 1z"/>
<path d="M1382 2343 l3 -688 1055 -3 c881 -2 1057 0 1065 11 7 9 9 249 8 683
-1 368 -2 672 -2 677 -1 4 -480 7 -1066 7 l-1065 0 2 -687z m1825 243 c35 -22
57 -63 51 -92 -5 -25 -67 -38 -75 -15 -14 47 -25 61 -49 67 -38 10 -58 -7 -62
-50 -3 -30 2 -41 30 -67 18 -17 49 -42 69 -55 53 -36 82 -81 87 -136 9 -93
-33 -138 -127 -138 -68 0 -97 16 -121 65 -29 61 -27 83 13 93 38 11 47 7 47
-18 0 -55 48 -93 90 -70 20 11 27 51 14 85 -4 8 -39 41 -78 71 -39 31 -79 70
-88 87 -25 45 -23 113 5 154 37 54 127 63 194 19z m-1357 -6 l0 -30 -65 0 -66
0 3 -77 3 -78 48 -3 c42 -3 47 -6 47 -27 0 -21 -5 -24 -47 -27 l-48 -3 0 -85
0 -85 63 -3 c61 -3 62 -3 62 -32 l0 -30 -100 0 -100 0 0 255 0 255 100 0 100
0 0 -30z m120 -151 l35 -182 11 69 c6 38 21 120 34 182 l23 112 38 0 c22 0 39
-2 39 -4 0 -2 -9 -48 -21 -102 -12 -55 -35 -166 -53 -249 l-31 -150 -41 -3
-41 -3 -26 128 c-15 70 -38 180 -52 243 -13 63 -24 121 -25 128 0 7 14 12 38
12 l37 0 35 -181z m420 151 l0 -30 -65 0 -65 0 0 -80 0 -80 45 0 c41 0 45 -2
45 -24 0 -22 -5 -25 -42 -28 l-43 -3 -3 -87 -3 -88 66 0 65 0 0 -30 0 -31
-102 3 -103 3 -3 253 -2 252 105 0 105 0 0 -30z m127 -47 c18 -43 42 -105 54
-138 34 -95 42 -92 35 16 -4 53 -4 120 0 148 6 50 7 51 40 51 l34 0 0 -255 0
-255 -25 0 c-29 0 -36 15 -106 200 l-44 115 -3 -157 -3 -158 -34 0 -35 0 0
255 0 255 28 0 c26 0 31 -7 59 -77z m453 42 c0 -35 0 -35 -45 -35 l-45 0 0
-220 0 -220 -40 0 -40 0 0 220 0 220 -45 0 c-45 0 -45 0 -45 35 l0 35 130 0
130 0 0 -35z"/>
</g>
</svg>
